{
  "accessors": [
    {
      "bufferView": 2,
      "componentType": 5126,
      "count": 6558,
      "max": [
        14.20829963684082,
        19.872169494628906,
        4.9263100624084473
      ],
      "min": [
        -10.514389991760254,
        5.3003802299499512,
        -1.1484400033950806
      ],
      "type": "VEC3"
    },
    {
      "bufferView": 2,
      "byteOffset": 78696,
      "componentType": 5126,
      "count": 6558,
      "max": [
        1,
        1,
        1
      ],
      "min": [
        -1,
        -1,
        -1
      ],
      "type": "VEC3"
    },
    {
      "bufferView": 1,
      "componentType": 5126,
      "count": 6558,
      "max": [
        0.99203997850418091,
        0.9957200288772583
      ],
      "min": [
        0.00030000001424923539,
        0.00030000001424923539
      ],
      "type": "VEC2"
    },
    {
      "bufferView": 0,
      "componentType": 5125,
      "count": 35520,
      "max": [
        6557
      ],
      "min": [
        0
      ],
      "type": "SCALAR"
    },
    {
      "bufferView": 2,
      "byteOffset": 157392,
      "componentType": 5126,
      "count": 14905,
      "max": [
        4.687039852142334,
        2.2253899574279785,
        6.452660083770752
      ],
      "min": [
        -5.5495500564575195,
        -1.5784900188446045,
        -0.35405999422073364
      ],
      "type": "VEC3"
    },
    {
      "bufferView": 2,
      "byteOffset": 336252,
      "componentType": 5126,
      "count": 14905,
      "max": [
        0.99989324808120728,
        0.99995630979537964,
        0.99964487552642822
      ],
      "min": [
        -0.99980300664901733,
        -0.99991416931152344,
        -0.9998963475227356
      ],
      "type": "VEC3"
    },
    {
      "bufferView": 3,
      "componentType": 5126,
      "count": 14905,
      "max": [
        0.99999427795410156,
        0.99994868040084839,
        0.9992637038230896,
        1
      ],
      "min": [
        -0.99967682361602783,
        -0.99988561868667603,
        -0.99996721744537354,
        -1
      ],
      "type": "VEC4"
    },
    {
      "bufferView": 1,
      "byteOffset": 52464,
      "componentType": 5126,
      "count": 14905,
      "max": [
        0.99387001991271973,
        0.99312001466751099
      ],
      "min": [
        0.0043899999000132084,
        0.0074000000022351742
      ],
      "type": "VEC2"
    },
    {
      "bufferView": 1,
      "byteOffset": 171704,
      "componentType": 5126,
      "count": 14905,
      "max": [
        0.99387001991271973,
        0.99312001466751099
      ],
      "min": [
        0.0043899999000132084,
        0.0074000000022351742
      ],
      "type": "VEC2"
    },
    {
      "bufferView": 0,
      "byteOffset": 142080,
      "componentType": 5125,
      "count": 79362,
      "max": [
        14904
      ],
      "min": [
        0
      ],
      "type": "SCALAR"
    },
    {
      "bufferView": 2,
      "byteOffset": 515112,
      "componentType": 5126,
      "count": 19800,
      "max": [
        10.696789741516113,
        5.3424100875854492,
        7.6276397705078125
      ],
      "min": [
        -28.415779113769531,
        -3.3062400817871094,
        -21.187559127807617
      ],
      "type": "VEC3"
    },
    {
      "bufferView": 2,
      "byteOffset": 752712,
      "componentType": 5126,
      "count": 19800,
      "max": [
        0.99994152784347534,
        0.99999278783798218,
        0.99805617332458496
      ],
      "min": [
        -0.99998146295547485,
        -0.99998253583908081,
        -0.99962407350540161
      ],
      "type": "VEC3"
    },
    {
      "bufferView": 0,
      "byteOffset": 459528,
      "componentType": 5125,
      "count": 114912,
      "max": [
        19799
      ],
      "min": [
        0
      ],
      "type": "SCALAR"
    },
    {
      "bufferView": 2,
      "byteOffset": 990312,
      "componentType": 5126,
      "count": 62355,
      "max": [
        18.352119445800781,
        7.8754401206970215,
        28.524839401245117
      ],
      "min": [
        -14.497309684753418,
        -4.9913702011108398,
        -7.5203800201416016
      ],
      "type": "VEC3"
    },
    {
      "bufferView": 2,
      "byteOffset": 1738572,
      "componentType": 5126,
      "count": 62355,
      "max": [
        0.99998456239700317,
        0.99998623132705688,
        0.99998492002487183
      ],
      "min": [
        -0.99999982118606567,
        -0.99997323751449585,
        -0.99992918968200684
      ],
      "type": "VEC3"
    },
    {
      "bufferView": 0,
      "byteOffset": 919176,
      "componentType": 5125,
      "count": 314070,
      "max": [
        62354
      ],
      "min": [
        0
      ],
      "type": "SCALAR"
    },
    {
      "bufferView": 2,
      "byteOffset": 2486832,
      "componentType": 5126,
      "count": 11681,
      "max": [
        17.091070175170898,
        1.5898699760437012,
        12.254839897155762
      ],
      "min": [
        -4.778170108795166,
        -5.0581698417663574,
        -4.3581199645996094
      ],
      "type": "VEC3"
    },
    {
      "bufferView": 2,
      "byteOffset": 2627004,
      "componentType": 5126,
      "count": 11681,
      "max": [
        0.99999374151229858,
        0.99996918439865112,
        0.99990338087081909
      ],
      "min": [
        -0.99998480081558228,
        -0.99987763166427612,
        -0.99113380908966064
      ],
      "type": "VEC3"
    },
    {
      "bufferView": 0,
      "byteOffset": 2175456,
      "componentType": 5125,
      "count": 62754,
      "max": [
        11680
      ],
      "min": [
        0
      ],
      "type": "SCALAR"
    },
    {
      "bufferView": 2,
      "byteOffset": 2767176,
      "componentType": 5126,
      "count": 514,
      "max": [
        1,
        1,
        1
      ],
      "min": [
        -1,
        -1,
        -1
      ],
      "type": "VEC3"
    },
    {
      "bufferView": 2,
      "byteOffset": 2773344,
      "componentType": 5126,
      "count": 514,
      "max": [
        1,
        1,
        1
      ],
      "min": [
        -1,
        -1,
        -1
      ],
      "type": "VEC3"
    },
    {
      "bufferView": 1,
      "byteOffset": 290944,
      "componentType": 5126,
      "count": 514,
      "max": [
        0.96296000480651855,
        0.98065000772476196
      ],
      "min": [
        0.03700999915599823,
        0.018500000238418579
      ],
      "type": "VEC2"
    },
    {
      "bufferView": 0,
      "byteOffset": 2426472,
      "componentType": 5125,
      "count": 2880,
      "max": [
        513
      ],
      "min": [
        0
      ],
      "type": "SCALAR"
    }
  ],
  "asset": {
    "extras": {
      "author": "Adan (https://sketchfab.com/Apdigivid.)",
      "license": "CC-BY-4.0 (http://creativecommons.org/licenses/by/4.0/)",
      "source": "https://sketchfab.com/3d-models/scary-stories-3-b42e43e9878c447391a2e1328094a887",
      "title": "Scary Stories 3"
    },
    "generator": "Sketchfab-9.95.0",
    "version": "2.0"
  },
  "bufferViews": [
    {
      "buffer": 0,
      "byteLength": 2437992,
      "byteOffset": 0,
      "name": "floatBufferViews",
      "target": 34963
    },
    {
      "buffer": 0,
      "byteLength": 295056,
      "byteOffset": 2437992,
      "byteStride": 8,
      "name": "floatBufferViews",
      "target": 34962
    },
    {
      "buffer": 0,
      "byteLength": 2779512,
      "byteOffset": 2733048,
      "byteStride": 12,
      "name": "floatBufferViews",
      "target": 34962
    },
    {
      "buffer": 0,
      "byteLength": 238480,
      "byteOffset": 5512560,
      "byteStride": 16,
      "name": "floatBufferViews",
      "target": 34962
    }
  ],
  "buffers": [
    {
      "byteLength": 5751040,
      "uri": "scene.bin"
    }
  ],
  "images": [
    {
      "uri": "textures/BG_Mat_baseColor.png"
    },
    {
      "uri": "textures/Face_Mat_baseColor.png"
    },
    {
      "uri": "textures/Face_Mat_normal.png"
    },
    {
      "uri": "textures/Eye_Mat_baseColor.png"
    }
  ],
  "materials": [
    {
      "doubleSided": false,
      "emissiveFactor": [
        0,
        0,
        0
      ],
      "name": "BG_Mat",
      "pbrMetallicRoughness": {
        "baseColorFactor": [
          1,
          1,
          1,
          1
        ],
        "baseColorTexture": {
          "index": 0,
          "texCoord": 0
        },
        "metallicFactor": 0,
        "roughnessFactor": 1
      }
    },
    {
      "doubleSided": true,
      "emissiveFactor": [
        0,
        0,
        0
      ],
      "name": "WhiteHair",
      "pbrMetallicRoughness": {
        "baseColorFactor": [
          0.53821897510000005,
          0.53821897510000005,
          0.53821897510000005,
          1
        ],
        "metallicFactor": 0,
        "roughnessFactor": 0.59999999999999998
      }
    },
    {
      "doubleSided": true,
      "emissiveFactor": [
        0,
        0,
        0
      ],
      "name": "DarkHair_Mat",
      "pbrMetallicRoughness": {
        "baseColorFactor": [
          0.073233135000000005,
          0.073233135000000005,
          0.073233135000000005,
          1
        ],
        "metallicFactor": 0,
        "roughnessFactor": 0.59999999999999998
      }
    },
    {
      "doubleSided": true,
      "emissiveFactor": [
        0,
        0,
        0
      ],
      "name": "DarkHair",
      "pbrMetallicRoughness": {
        "baseColorFactor": [
          0.027208419500000001,
          0.027208419500000001,
          0.027208419500000001,
          1
        ],
        "metallicFactor": 0,
        "roughnessFactor": 0.59999999999999998
      }
    },
    {
      "doubleSided": true,
      "emissiveFactor": [
        0,
        0,
        0
      ],
      "name": "Face_Mat",
      "normalTexture": {
        "index": 2,
        "scale": 1,
        "texCoord": 0
      },
      "pbrMetallicRoughness": {
        "baseColorFactor": [
          1,
          1,
          1,
          1
        ],
        "baseColorTexture": {
          "index": 1,
          "texCoord": 0
        },
        "metallicFactor": 0,
        "roughnessFactor": 0.55659298779999999
      }
    },
    {
      "doubleSided": true,
      "emissiveFactor": [
        0,
        0,
        0
      ],
      "name": "Eye_Mat",
      "pbrMetallicRoughness": {
        "baseColorFactor": [
          1,
          1,
          1,
          1
        ],
        "baseColorTexture": {
          "index": 3,
          "texCoord": 0
        },
        "metallicFactor": 0,
        "roughnessFactor": 0.59999999999999998
      }
    }
  ],
  "meshes": [
    {
      "name": "Eye_0",
      "primitives": [
        {
          "attributes": {
            "NORMAL": 1,
            "POSITION": 0,
            "TEXCOORD_0": 2
          },
          "indices": 3,
          "material": 5,
          "mode": 4
        }
      ]
    },
    {
      "name": "Faces_Low_0",
      "primitives": [
        {
          "attributes": {
            "NORMAL": 5,
            "POSITION": 4,
            "TANGENT": 6,
            "TEXCOORD_0": 7,
            "TEXCOORD_1": 8
          },
          "indices": 9,
          "material": 4,
          "mode": 4
        }
      ]
    },
    {
      "name": "HairStrands_0",
      "primitives": [
        {
          "attributes": {
            "NORMAL": 11,
            "POSITION": 10
          },
          "indices": 12,
          "material": 3,
          "mode": 4
        }
      ]
    },
    {
      "name": "Dark_Hair_0",
      "primitives": [
        {
          "attributes": {
            "NORMAL": 14,
            "POSITION": 13
          },
          "indices": 15,
          "material": 2,
          "mode": 4
        }
      ]
    },
    {
      "name": "D_white_Hair_0",
      "primitives": [
        {
          "attributes": {
            "NORMAL": 17,
            "POSITION": 16
          },
          "indices": 18,
          "material": 1,
          "mode": 4
        }
      ]
    },
    {
      "name": "Sphere_0",
      "primitives": [
        {
          "attributes": {
            "NORMAL": 20,
            "POSITION": 19,
            "TEXCOORD_0": 21
          },
          "indices": 22,
          "material": 0,
          "mode": 4
        }
      ]
    }
  ],
  "nodes": [
    {
      "children": [
        1
      ],
      "name": "RootNode (gltf orientation matrix)",
      "rotation": [
        -0.70710678118654746,
        -0,
        -0,
        0.70710678118654757
      ]
    },
    {
      "children": [
        2
      ],
      "matrix": [
        0.038036342710256577,
        0,
        0,
        0,
        0,
        0.038036342710256577,
        0,
        0,
        0,
        0,
        0.038036342710256577,
        0,
        0,
        0,
        0,
        1
      ],
      "name": "RootNode (model correction matrix)"
    },
    {
      "children": [
        3,
        5,
        7,
        9,
        11,
        13,
        15
      ],
      "name": "Root"
    },
    {
      "children": [
        4
      ],
      "matrix": [
        1,
        0,
        0,
        0,
        0,
        -0,
        1,
        0,
        0,
        -1,
        -0,
        0,
        0,
        0,
        0,
        1
      ],
      "name": "Eye"
    },
    {
      "mesh": 0,
      "name": "Eye_0"
    },
    {
      "children": [
        6
      ],
      "matrix": [
        3.7089700000000003,
        0,
        0,
        0,
        0,
        3.7089700000000003,
        0,
        0,
        0,
        0,
        3.7089700000000003,
        0,
        0,
        0,
        0,
        1
      ],
      "name": "Faces_Low"
    },
    {
      "mesh": 1,
      "name": "Faces_Low_0"
    },
    {
      "children": [
        8
      ],
      "matrix": [
        1,
        0,
        0,
        0,
        0,
        1,
        0,
        0,
        0,
        0,
        1,
        0,
        0,
        0,
        35.354839999999989,
        1
      ],
      "name": "Hemi"
    },
    {
      "name": "Hemi"
    },
    {
      "children": [
        10
      ],
      "matrix": [
        1,
        0,
        0,
        0,
        0,
        1,
        0,
        0,
        0,
        0,
        1,
        0,
        9.2597000000000005,
        2.5241700000000002,
        19.542609999999996,
        1
      ],
      "name": "HairStrands"
    },
    {
      "mesh": 2,
      "name": "HairStrands_0"
    },
    {
      "children": [
        12
      ],
      "name": "Dark_Hair"
    },
    {
      "mesh": 3,
      "name": "Dark_Hair_0"
    },
    {
      "children": [
        14
      ],
      "name": "D_white_Hair"
    },
    {
      "mesh": 4,
      "name": "D_white_Hair_0"
    },
    {
      "children": [
        16
      ],
      "matrix": [
        41.897590000000001,
        -0,
        1.1174500000000001,
        0,
        0,
        41.912489999999998,
        0,
        0,
        -1.1174500000000001,
        0,
        41.897590000000001,
        0,
        0.75804000000000016,
        -0,
        12.00494,
        1
      ],
      "name": "Sphere"
    },
    {
      "mesh": 5,
      "name": "Sphere_0"
    }
  ],
  "samplers": [
    {
      "magFilter": 9729,
      "minFilter": 9987,
      "wrapS": 10497,
      "wrapT": 10497
    }
  ],
  "scene": 0,
  "scenes": [
    {
      "name": "OSG_Scene",
      "nodes": [
        0
      ]
    }
  ],
  "textures": [
    {
      "sampler": 0,
      "source": 0
    },
    {
      "sampler": 0,
      "source": 1
    },
    {
      "sampler": 0,
      "source": 2
    },
    {
      "sampler": 0,
      "source": 3
    }
  ]
}

