{
  "accessors": [
    {
      "bufferView": 3,
      "componentType": 5126,
      "count": 14141,
      "max": [
        87.66409301757813,
        160.0930633544922,
        148.16030883789063
      ],
      "min": [
        -93.7409439086914,
        0.16826674342155457,
        -115.18348693847656
      ],
      "type": "VEC3"
    },
    {
      "bufferView": 3,
      "byteOffset": 169692,
      "componentType": 5126,
      "count": 14141,
      "max": [
        0.9999039769172668,
        0.9985333681106567,
        0.9999842047691345
      ],
      "min": [
        -0.9999039769172668,
        -0.999880313873291,
        -0.9999890923500061
      ],
      "type": "VEC3"
    },
    {
      "bufferView": 4,
      "componentType": 5126,
      "count": 14141,
      "max": [
        0.9994882345199585,
        0.9999716281890869,
        0.9999016523361206,
        1.0
      ],
      "min": [
        -1.0,
        -0.9998598694801331,
        -0.9999004006385803,
        -1.0
      ],
      "type": "VEC4"
    },
    {
      "bufferView": 2,
      "componentType": 5126,
      "count": 14141,
      "max": [
        0.9980400204658508,
        0.9079700112342834
      ],
      "min": [
        0.0019499999471008778,
        0.0019499999471008778
      ],
      "type": "VEC2"
    },
    {
      "bufferView": 1,
      "componentType": 5125,
      "count": 82140,
      "type": "SCALAR"
    },
    {
      "bufferView": 5,
      "componentType": 5126,
      "count": 37,
      "max": [
        1.0,
        0.0016718209953978658,
        0.0009015285759232938,
        0.0,
        0.0009015254327096045,
        1.0,
        0.00306388339959085,
        0.0,
        0.0016718226252123713,
        0.003010482294484973,
        1.0,
        0.0,
        0.183632493019104,
        0.27820533514022827,
        0.39956745505332947,
        1.0
      ],
      "min": [
        -0.00306388339959085,
        -0.0017737463349476457,
        -0.001116809668019414,
        0.0,
        -0.0007286557229235768,
        -0.003024050500243902,
        -0.003006648039445281,
        0.0,
        -0.0020355263259261847,
        -0.00306388339959085,
        -0.003054756438359618,
        0.0,
        -0.1836332231760025,
        -0.26998385787010193,
        -0.3409200608730316,
        1.0
      ],
      "type": "MAT4"
    },
    {
      "bufferView": 0,
      "componentType": 5123,
      "count": 14141,
      "type": "VEC4"
    },
    {
      "bufferView": 4,
      "byteOffset": 226256,
      "componentType": 5126,
      "count": 14141,
      "max": [
        1.0,
        0.49987587332725525,
        0.3268180787563324,
        0.23521915078163147
      ],
      "min": [
        0.2658933699131012,
        0.0,
        0.0,
        0.0
      ],
      "type": "VEC4"
    }
  ],
  "asset": {
    "extras": {
      "author": "Ploobert (https://sketchfab.com/Ploobert)",
      "license": "CC-BY-NC-SA-4.0 (http://creativecommons.org/licenses/by-nc-sa/4.0/)",
      "source": "https://sketchfab.com/3d-models/spider-monster-rigged-ef71c4f221304a7ea9f01b691867f3d0",
      "title": "Spider monster Rigged"
    },
    "generator": "Sketchfab-11.14.0",
    "version": "2.0"
  },
  "bufferViews": [
    {
      "buffer": 0,
      "byteLength": 113128,
      "byteStride": 8,
      "name": "shortBufferViews",
      "target": 34962
    },
    {
      "buffer": 0,
      "byteLength": 328560,
      "byteOffset": 113128,
      "name": "floatBufferViews",
      "target": 34963
    },
    {
      "buffer": 0,
      "byteLength": 113128,
      "byteOffset": 441688,
      "byteStride": 8,
      "name": "floatBufferViews",
      "target": 34962
    },
    {
      "buffer": 0,
      "byteLength": 339384,
      "byteOffset": 554816,
      "byteStride": 12,
      "name": "floatBufferViews",
      "target": 34962
    },
    {
      "buffer": 0,
      "byteLength": 452512,
      "byteOffset": 894200,
      "byteStride": 16,
      "name": "floatBufferViews",
      "target": 34962
    },
    {
      "buffer": 0,
      "byteLength": 2368,
      "byteOffset": 1346712,
      "byteStride": 64,
      "name": "floatBufferViews"
    }
  ],
  "buffers": [
    {
      "byteLength": 1349080,
      "uri": "scene.bin"
    }
  ],
  "images": [
    {
      "uri": "textures/Diffuse_baseColor.jpeg"
    },
    {
      "uri": "textures/Diffuse_metallicRoughness.png"
    },
    {
      "uri": "textures/Diffuse_normal.png"
    }
  ],
  "materials": [
    {
      "doubleSided": true,
      "name": "Diffuse",
      "normalTexture": {
        "index": 2
      },
      "occlusionTexture": {
        "index": 1
      },
      "pbrMetallicRoughness": {
        "baseColorTexture": {
          "index": 0
        },
        "metallicFactor": 0.0,
        "metallicRoughnessTexture": {
          "index": 1
        },
        "roughnessFactor": 0.3662267732490209
      }
    }
  ],
  "meshes": [
    {
      "name": "1_Diffuse_0",
      "primitives": [
        {
          "attributes": {
            "JOINTS_0": 6,
            "NORMAL": 1,
            "POSITION": 0,
            "TANGENT": 2,
            "TEXCOORD_0": 3,
            "WEIGHTS_0": 7
          },
          "indices": 4,
          "material": 0,
          "mode": 4
        }
      ]
    }
  ],
  "nodes": [
    {
      "children": [
        1
      ],
      "matrix": [
        1.0,
        0.0,
        0.0,
        0.0,
        0.0,
        2.220446049250313e-16,
        -1.0,
        0.0,
        0.0,
        1.0,
        2.220446049250313e-16,
        0.0,
        0.0,
        0.0,
        0.0,
        1.0
      ],
      "name": "Sketchfab_model"
    },
    {
      "children": [
        2
      ],
      "matrix": [
        1.0,
        0.0,
        0.0,
        0.0,
        0.0,
        0.0,
        1.0,
        0.0,
        0.0,
        -1.0,
        0.0,
        0.0,
        0.0,
        0.0,
        0.0,
        1.0
      ],
      "name": "06e625c9f2e346cfba7cd07887a649ec.fbx"
    },
    {
      "children": [
        3
      ],
      "name": "RootNode"
    },
    {
      "children": [
        4
      ],
      "matrix": [
        326.3831787109375,
        0.0,
        0.0,
        0.0,
        0.0,
        -5.3174569217651464e-05,
        -326.3831787109332,
        0.0,
        0.0,
        326.3831787109332,
        -5.3174569217651464e-05,
        0.0,
        8.023351880342804e-15,
        26.133962631225586,
        68.96754455566406,
        1.0
      ],
      "name": "Armature"
    },
    {
      "children": [
        5,
        7,
        6
      ],
      "name": "Object_4"
    },
    {
      "children": [
        8,
        28,
        30,
        32,
        34,
        36,
        38,
        40,
        42
      ],
      "name": "_rootJoint"
    },
    {
      "matrix": [
        99.99998359762344,
        -2.3190919670734722e-12,
        0.0,
        0.0,
        2.3190919670734722e-12,
        99.99998359762344,
        1.6292067493894807e-05,
        0.0,
        -3.778280904936957e-19,
        -1.6292067493886472e-05,
        99.99998359757228,
        0.0,
        -3.038416625868854,
        96.83642576111909,
        -1.9664967112476006e-06,
        1.0
      ],
      "name": "Object_6"
    },
    {
      "mesh": 0,
      "name": "Object_7",
      "skin": 0
    },
    {
      "children": [
        9,
        12,
        15,
        18,
        21,
        23,
        25
      ],
      "name": "Spine Base_01",
      "rotation": [
        1.3234889800848443e-23,
        3.5762786865234375e-07,
        2.0510383535746307e-29,
        1.0
      ],
      "translation": [
        -1.213373490571712e-08,
        0.11612766236066818,
        0.26084864139556885
      ]
    },
    {
      "children": [
        10
      ],
      "name": "Thigh .L_02",
      "rotation": [
        0.9559783339500427,
        0.26879939436912537,
        -0.07394961267709732,
        0.09156277775764465
      ],
      "scale": [
        0.9999975562095642,
        0.9999993443489075,
        0.9999997615814209
      ],
      "translation": [
        0.10912398248910904,
        -0.0010828971862792969,
        -0.11446048319339752
      ]
    },
    {
      "children": [
        11
      ],
      "name": "Shin .L_03",
      "rotation": [
        0.6684687733650208,
        0.0726664662361145,
        0.260086327791214,
        0.6929821372032166
      ],
      "scale": [
        1.0,
        0.999999463558197,
        1.0000007152557373
      ],
      "translation": [
        -3.725290298461914e-08,
        0.27306467294692993,
        -1.862645149230957e-08
      ]
    },
    {
      "name": "Shin .L_end_022",
      "rotation": [
        -1.156686441209131e-34,
        4.336808689942018e-18,
        2.667137344314341e-17,
        1.0
      ],
      "translation": [
        -2.7755575615628914e-17,
        0.26807382702827454,
        -1.1102230246251565e-16
      ]
    },
    {
      "children": [
        13
      ],
      "name": "Thigh .R_04",
      "rotation": [
        0.9559780359268188,
        -0.2688002586364746,
        0.07395127415657043,
        0.09156209230422974
      ],
      "scale": [
        1.0000014305114746,
        1.0000004768371582,
        1.000000238418579
      ],
      "translation": [
        -0.10912381857633591,
        -0.0010828971862792969,
        -0.11446063220500946
      ]
    },
    {
      "children": [
        14
      ],
      "name": "Shin .R_05",
      "rotation": [
        0.6684687733650208,
        -0.07266663759946823,
        -0.260086327791214,
        0.6929820775985718
      ],
      "scale": [
        1.0000001192092896,
        0.9999999403953552,
        0.999999463558197
      ],
      "translation": [
        -1.862645149230957e-08,
        0.27306461334228516,
        2.2351741790771484e-08
      ]
    },
    {
      "name": "Shin .R_end_023",
      "rotation": [
        -2.7755575615628914e-17,
        1.214306433183765e-17,
        2.2985086056692694e-17,
        1.0
      ],
      "translation": [
        5.551115123125783e-17,
        0.26807382702827454,
        0.0
      ]
    },
    {
      "children": [
        16
      ],
      "name": "Thigh .L.001_06",
      "rotation": [
        0.2501392066478729,
        0.14312312006950378,
        -0.00867535825818777,
        0.9575337767601013
      ],
      "scale": [
        1.000000238418579,
        1.0000001192092896,
        1.0
      ],
      "translation": [
        -0.1005675196647644,
        0.16757869720458984,
        -0.18931271135807037
      ]
    },
    {
      "children": [
        17
      ],
      "name": "Shin .L.001_07",
      "rotation": [
        -0.8531601428985596,
        0.07921727746725082,
        -0.12131734192371368,
        0.501123309135437
      ],
      "scale": [
        1.0,
        0.9999995827674866,
        0.9999993443489075
      ],
      "translation": [
        9.313225746154785e-09,
        0.24726012349128723,
        -1.30385160446167e-08
      ]
    },
    {
      "name": "Shin .L.001_end_00",
      "rotation": [
        -9.107298248878237e-18,
        -1.3877787807814457e-17,
        -4.038653092508504e-17,
        1.0
      ],
      "translation": [
        0.0,
        0.24057789146900177,
        -2.7755575615628914e-17
      ]
    },
    {
      "children": [
        19
      ],
      "name": "Thigh .R.001_08",
      "rotation": [
        0.26775842905044556,
        -0.09166771918535233,
        -0.0021487169433385134,
        0.9591130614280701
      ],
      "scale": [
        1.0000004768371582,
        1.0000003576278687,
        1.0000001192092896
      ],
      "translation": [
        0.11768028140068054,
        0.16757869720458984,
        -0.18931254744529724
      ]
    },
    {
      "children": [
        20
      ],
      "name": "Shin .R.001_09",
      "rotation": [
        -0.8564773797988892,
        -0.055692240595817566,
        0.09607153385877609,
        0.5040982961654663
      ],
      "scale": [
        1.0000003576278687,
        0.9999998211860657,
        0.9999995827674866
      ],
      "translation": [
        -3.725290298461914e-09,
        0.24210402369499207,
        -5.587935447692871e-09
      ]
    },
    {
      "name": "Shin .R.001_end_024",
      "rotation": [
        3.469446951953614e-18,
        -2.7755575615628914e-17,
        -9.540979117872439e-18,
        1.0
      ],
      "translation": [
        0.0,
        0.24057789146900177,
        5.551115123125783e-17
      ]
    },
    {
      "children": [
        22
      ],
      "name": "Spine Base.001_010",
      "rotation": [
        -0.3633243143558502,
        -0.058791182935237885,
        0.36312150955200195,
        0.8559683561325073
      ],
      "scale": [
        0.9999999403953552,
        1.0000001192092896,
        1.0
      ],
      "translation": [
        4.440892098500626e-15,
        0.15524834394454956,
        -8.715250743307479e-15
      ]
    },
    {
      "name": "Spine Base.001_end_025",
      "rotation": [
        -5.551115123125783e-17,
        2.7755575615628914e-17,
        2.7755575615628914e-17,
        1.0
      ],
      "translation": [
        6.938893903907228e-18,
        0.12344469875097275,
        -5.551115123125783e-17
      ]
    },
    {
      "children": [
        24
      ],
      "name": "Spine Base.002_011",
      "rotation": [
        -0.44835612177848816,
        6.715030753667861e-09,
        -0.32813575863838196,
        0.8314467668533325
      ],
      "translation": [
        4.440892098500626e-15,
        0.15524834394454956,
        -8.715250743307479e-15
      ]
    },
    {
      "name": "Spine Base.002_end_026",
      "rotation": [
        -2.7755575615628914e-17,
        5.551115123125783e-17,
        1.5407439555097887e-33,
        1.0
      ],
      "translation": [
        -1.3877787807814457e-17,
        0.1464747041463852,
        0.0
      ]
    },
    {
      "children": [
        26
      ],
      "name": "Spine Base.003_012",
      "rotation": [
        3.079397572491871e-07,
        0.09335321187973022,
        0.995633065700531,
        4.6955786814351086e-08
      ],
      "scale": [
        1.0,
        0.9999997019767761,
        0.9999931454658508
      ],
      "translation": [
        4.440892098500626e-15,
        0.0,
        -8.659739592076221e-15
      ]
    },
    {
      "children": [
        27
      ],
      "name": "Spine Base.004_013",
      "rotation": [
        0.1189536601305008,
        -2.4038594465675134e-12,
        -1.5976389988736628e-07,
        0.9928998351097107
      ],
      "scale": [
        1.0,
        1.0,
        1.0000001192092896
      ],
      "translation": [
        8.881784197001252e-16,
        0.043819550424814224,
        1.3038500057405145e-08
      ]
    },
    {
      "name": "Spine Base.004_end_027",
      "rotation": [
        -2.7755575615628914e-17,
        7.940933880509066e-23,
        -7.940933880509066e-23,
        1.0
      ],
      "translation": [
        0.0,
        0.08176382631063461,
        0.0
      ]
    },
    {
      "children": [
        29
      ],
      "name": "Knee IK.L_014",
      "rotation": [
        1.0,
        3.3001182895339015e-15,
        7.549790126404332e-08,
        -4.371138828673793e-08
      ],
      "translation": [
        0.23213988542556763,
        -0.25560569763183594,
        0.2654365599155426
      ]
    },
    {
      "name": "Knee IK.L_end_028",
      "rotation": [
        0.0,
        -1.1040223542260222e-23,
        1.5777218104420236e-30,
        1.0
      ],
      "translation": [
        0.0,
        0.1425493359565735,
        5.551115123125783e-17
      ]
    },
    {
      "children": [
        31
      ],
      "name": "Heel IK.L_015",
      "rotation": [
        -0.024433918297290802,
        1.1917368425429231e-07,
        -2.9127491529834515e-09,
        0.9997015595436096
      ],
      "scale": [
        1.0,
        0.9999998807907104,
        0.9999999403953552
      ],
      "translation": [
        0.16561844944953918,
        -0.19831544160842896,
        -0.05559525638818741
      ]
    },
    {
      "name": "Heel IK.L_end_029",
      "rotation": [
        6.938893903907228e-18,
        -4.254810275819636e-23,
        8.271806125530277e-25,
        1.0
      ],
      "translation": [
        0.0,
        0.09527868032455444,
        -3.469446951953614e-18
      ]
    },
    {
      "children": [
        33
      ],
      "name": "Knee IK.R_016",
      "rotation": [
        1.0,
        -3.3001182895339015e-15,
        -7.549790126404332e-08,
        -4.371138828673793e-08
      ],
      "translation": [
        -0.23213988542556763,
        -0.25560569763183594,
        0.2654365599155426
      ]
    },
    {
      "name": "Knee IK.R_end_030",
      "rotation": [
        0.0,
        1.1040223542260222e-23,
        -1.5777218104420236e-30,
        1.0
      ],
      "translation": [
        -2.7755575615628914e-17,
        0.1425493359565735,
        5.551115123125783e-17
      ]
    },
    {
      "children": [
        35
      ],
      "name": "Heel IK.R_017",
      "rotation": [
        -0.024433918297290802,
        -1.1917368425429231e-07,
        2.9127491529834515e-09,
        0.9997015595436096
      ],
      "scale": [
        1.0,
        0.9999998807907104,
        0.9999999403953552
      ],
      "translation": [
        -0.16561844944953918,
        -0.19831544160842896,
        -0.05559525638818741
      ]
    },
    {
      "name": "Heel IK.R_end_031",
      "rotation": [
        6.938893903907228e-18,
        4.254810275819636e-23,
        -8.271806125530277e-25,
        1.0
      ],
      "translation": [
        -2.7755575615628914e-17,
        0.09527868032455444,
        -3.469446951953614e-18
      ]
    },
    {
      "children": [
        37
      ],
      "name": "Knee IK.L.001_018",
      "rotation": [
        -0.006023947615176439,
        6.278215778365848e-07,
        -1.0831726626747695e-07,
        0.9999818801879883
      ],
      "scale": [
        1.0,
        1.0,
        0.9999999403953552
      ],
      "translation": [
        -0.10056757181882858,
        0.09805499017238617,
        0.017979919910430908
      ]
    },
    {
      "name": "Knee IK.L.001_end_032",
      "rotation": [
        -2.802596928649634e-45,
        8.127049518333497e-23,
        2.6469779601696886e-23,
        1.0
      ],
      "translation": [
        0.0,
        0.14254936575889587,
        0.0
      ]
    },
    {
      "children": [
        39
      ],
      "name": "Heel IK.L.001_019",
      "rotation": [
        0.9987858533859253,
        -1.3507303719961783e-07,
        7.042813194857445e-07,
        -0.049263037741184235
      ],
      "scale": [
        1.0,
        1.0,
        1.0000150203704834
      ],
      "translation": [
        -0.14892396330833435,
        0.49898481369018555,
        -0.04074743390083313
      ]
    },
    {
      "name": "Heel IK.L.001_end_033",
      "rotation": [
        2.802596928649634e-45,
        -9.595295105615121e-23,
        2.6469779601696886e-23,
        1.0
      ],
      "translation": [
        0.0,
        0.14869371056556702,
        1.734723475976807e-18
      ]
    },
    {
      "children": [
        41
      ],
      "name": "Knee IK.R.001_020",
      "rotation": [
        -0.006024266127496958,
        1.9274543087703964e-16,
        -1.0453531729126553e-07,
        0.9999818801879883
      ],
      "scale": [
        1.0,
        0.9999998807907104,
        0.9999999403953552
      ],
      "translation": [
        0.11768019944429398,
        0.09805499017238617,
        0.017979919910430908
      ]
    },
    {
      "name": "Knee IK.R.001_end_034",
      "rotation": [
        1.734723475976807e-18,
        -2.2958874039497803e-41,
        -1.3234889800848443e-23,
        1.0
      ],
      "translation": [
        0.0,
        0.14254926145076752,
        1.3877787807814457e-17
      ]
    },
    {
      "children": [
        43
      ],
      "name": "Heel IK.R.001_021",
      "rotation": [
        0.9987858533859253,
        1.3507303719961783e-07,
        -7.042813194857445e-07,
        -0.049263037741184235
      ],
      "scale": [
        1.0,
        1.0,
        1.0000150203704834
      ],
      "translation": [
        0.14892396330833435,
        0.49898481369018555,
        -0.04074743390083313
      ]
    },
    {
      "name": "Heel IK.R.001_end_035",
      "rotation": [
        2.802596928649634e-45,
        9.595295105615121e-23,
        -2.6469779601696886e-23,
        1.0
      ],
      "translation": [
        2.7755575615628914e-17,
        0.14869371056556702,
        1.734723475976807e-18
      ]
    }
  ],
  "samplers": [
    {
      "magFilter": 9729,
      "minFilter": 9987,
      "wrapS": 10497,
      "wrapT": 10497
    }
  ],
  "scene": 0,
  "scenes": [
    {
      "name": "Sketchfab_Scene",
      "nodes": [
        0
      ]
    }
  ],
  "skins": [
    {
      "inverseBindMatrices": 5,
      "joints": [
        5,
        8,
        9,
        10,
        11,
        12,
        13,
        14,
        15,
        16,
        17,
        18,
        19,
        20,
        21,
        22,
        23,
        24,
        25,
        26,
        27,
        28,
        29,
        30,
        31,
        32,
        33,
        34,
        35,
        36,
        37,
        38,
        39,
        40,
        41,
        42,
        43
      ],
      "skeleton": 5
    }
  ],
  "textures": [
    {
      "sampler": 0,
      "source": 0
    },
    {
      "sampler": 0,
      "source": 1
    },
    {
      "sampler": 0,
      "source": 2
    }
  ]
}
